<?xml version='1.0' encoding='utf-8'?>
<svg xmlns="http://www.w3.org/2000/svg" version="1.1" width="228" height="238" viewBox="0 0 228 238" role="img" aria-label="우가 스티커 — 찾기">
  <path d="M0 0 C2.623 1.99 3.893 4.278 4.812 7.375 C5.18 10.908 5.422 14.156 3.812 17.375 C4.332 17.17 4.851 16.965 5.387 16.754 C6.084 16.484 6.781 16.215 7.5 15.938 C8.184 15.671 8.869 15.404 9.574 15.129 C17.33 12.516 28.298 11.687 36.125 14.5 C38.813 16.375 38.813 16.375 40.5 19.188 C40.935 23.623 39.567 24.972 36.812 28.375 C37.115 28.49 37.115 28.49 38.648 29.074 C63.204 38.632 63.204 38.632 68.262 48.703 C69.098 51.24 68.791 52.928 67.812 55.375 C65.86 57.327 64.281 58.223 61.812 59.375 C62.097 59.63 62.097 59.63 63.535 60.922 C72.138 69.022 79.465 78.911 80.125 91.125 C79.812 94.375 79.812 94.375 78.625 96.188 C76.461 97.606 74.22 98.441 71.812 99.375 C72.162 100.123 72.511 100.87 72.871 101.641 C73.326 102.625 73.781 103.61 74.25 104.625 C74.702 105.6 75.155 106.574 75.621 107.578 C77.625 112.282 77.995 116.348 78 121.438 C78.012 122.062 78.024 122.687 78.037 123.33 C78.045 125.887 78.001 127.963 76.926 130.309 C75.812 131.375 75.812 131.375 73.812 131.375 C74.173 131.929 74.534 132.484 74.906 133.055 C75.37 133.779 75.834 134.504 76.312 135.25 C76.777 135.969 77.241 136.689 77.719 137.43 C78.812 139.375 78.812 139.375 78.812 141.375 C79.823 141.416 80.834 141.458 81.875 141.5 C86.682 142.192 89.641 144.834 92.812 148.375 C96.488 153.835 97.626 159.906 96.812 166.375 C94.885 172.82 90.646 178.046 84.812 181.375 C81.941 181.902 81.941 181.902 78.875 182.188 C72.075 182.94 69.51 185.9 65.262 190.867 C63.812 193.375 63.812 193.375 64.066 195.328 C64.19 195.666 64.19 195.666 64.812 197.375 C65.734 210.105 65.734 210.105 61.812 215.375 C55.637 221.671 50.577 224.545 41.688 225.125 C41.067 225.18 40.447 225.236 39.809 225.293 C37.245 225.475 35.257 225.573 32.883 224.516 C31.812 223.375 31.812 223.375 31.812 221.375 C31.25 221.461 30.687 221.546 30.107 221.635 C27.468 222.033 24.828 222.423 22.188 222.812 C21.303 222.947 20.419 223.082 19.508 223.221 C5.555 225.264 -8.301 225.575 -22.375 225.562 C-22.81 225.563 -22.81 225.563 -25.014 225.565 C-38.418 225.563 -51.655 225.032 -65.004 223.812 C-70.879 223.279 -76.399 222.972 -82.188 224.375 C-83.537 222.696 -84.178 221.75 -84.231 219.566 C-84.184 219.238 -84.184 219.238 -83.945 217.582 C-83.849 216.87 -83.752 216.158 -83.652 215.424 C-83.54 214.686 -83.428 213.948 -83.312 213.188 C-83.208 212.438 -83.104 211.688 -82.996 210.916 C-82.737 209.068 -82.464 207.221 -82.188 205.375 C-82.817 205.216 -83.446 205.058 -84.094 204.895 C-93.482 202.335 -99.231 198.802 -105.391 191.301 C-107.762 188.759 -110.367 187.155 -113.391 185.48 C-115.971 183.893 -117.802 182.498 -118.805 179.578 C-119.403 175.048 -118.996 172.681 -116.871 168.535 C-115.932 165.569 -116.173 162.753 -116.312 159.688 C-116.615 149.926 -113.326 142.469 -106.875 135.125 C-105.661 133.86 -104.438 132.604 -103.188 131.375 C-103.411 131.036 -103.411 131.036 -104.543 129.32 C-110.787 119.709 -115.929 111.007 -117.188 99.375 C-117.271 98.66 -117.355 97.944 -117.441 97.207 C-118.174 84.617 -112.953 72.948 -105.188 63.375 C-102.263 60.146 -99.145 57.458 -95.5 55.062 C-95.117 54.807 -95.117 54.807 -93.176 53.512 C-91.188 52.375 -91.188 52.375 -89.188 52.375 C-89.621 51.942 -90.054 51.509 -90.5 51.062 C-91.057 50.506 -91.614 49.949 -92.188 49.375 C-92.476 49.169 -92.476 49.169 -93.938 48.125 C-95.188 46.375 -95.188 46.375 -95.375 43.125 C-94.321 37.91 -90.403 35.222 -86.188 32.375 C-79.809 28.63 -73.482 25.187 -65.938 25.312 C-65.584 25.317 -65.584 25.317 -63.797 25.34 C-63.266 25.351 -62.735 25.363 -62.188 25.375 C-62.868 24.529 -63.549 23.684 -64.25 22.812 C-66.292 19.728 -66.501 17.693 -66.035 14.086 C-64.645 11.28 -62.804 10.045 -60.188 8.375 C-50.469 6.761 -41.272 8.677 -33.188 14.375 C-32.775 13.928 -32.362 13.48 -31.938 13.02 C-23.964 4.672 -12.164 -3.475 0 0 Z " fill="#291308" transform="translate(125.1875,6.625)" />
  <path d="M0 0 C2 2 2 2 2.195 5.477 C2.182 6.86 2.158 8.242 2.125 9.625 C2.116 10.331 2.107 11.038 2.098 11.766 C2.074 13.511 2.038 15.255 2 17 C4.479 17.89 5.684 18.106 8.219 17.258 C8.972 16.884 9.724 16.51 10.5 16.125 C16.019 13.422 20.424 12.818 26.5 12.812 C27.164 12.8 27.828 12.788 28.512 12.775 C32.193 12.764 34.808 12.94 38 15 C36.56 18.744 34.126 20.969 31.242 23.633 C30 25 30 25 30 27 C30.871 27.159 31.743 27.317 32.641 27.48 C43.882 29.636 55.656 32.634 64 41 C65.211 43.184 65.211 43.184 66 45 C61.981 46.812 58.389 48.335 54 49 C55.515 52.729 57.713 54.721 60.75 57.312 C67.964 63.643 75.899 71.165 77.309 81.195 C77.312 83.125 77.312 83.125 77 86 C73.37 85.67 69.74 85.34 66 85 C66.71 86.458 67.421 87.916 68.152 89.418 C69.081 91.341 70.009 93.264 70.938 95.188 C71.172 95.667 71.172 95.667 72.357 98.096 C72.805 99.027 73.253 99.958 73.715 100.918 C74.129 101.772 74.542 102.625 74.969 103.505 C76.873 108.111 77.668 113.042 77 118 C75.844 120.313 74.826 122.174 73 124 C71.334 124.041 69.666 124.043 68 124 C68.144 123.732 68.144 123.732 68.875 122.375 C71.941 115.902 72.878 110.195 72 103 C70.448 99.031 67.652 96.148 64 94 C62.02 93.276 60.022 92.597 58 92 C58 93.65 58 95.3 58 97 C58.557 97.062 59.114 97.124 59.688 97.188 C63.052 98.37 65.281 99.895 67 103 C67.895 108.023 68.001 113.113 65.25 117.562 C63.14 119.848 61.756 120.744 59 122 C58.902 120.94 58.804 119.881 58.703 118.789 C58.553 117.401 58.402 116.013 58.25 114.625 C58.188 113.926 58.126 113.228 58.062 112.508 C57.841 110.585 57.606 108.839 57 107 C54.922 105.523 54.922 105.523 53 105 C53.095 105.839 53.191 106.678 53.289 107.543 C54.059 115.381 54.015 123.025 53.375 130.875 C53.318 131.741 53.261 132.608 53.202 133.501 C52.532 140.604 50.133 146.239 45.552 151.738 C43.413 153.477 41.493 153.275 38.816 153.203 C36.814 152.979 34.942 152.529 33 152 C32.588 152.603 32.175 153.207 31.75 153.828 C27.368 159.892 23.479 164.02 15.926 165.371 C10.764 165.696 7.984 164.187 4 161 C1.271 162.201 -0.958 163.702 -3.312 165.5 C-9.175 169.719 -15.826 171.164 -23 170 C-27.827 168.168 -31.529 166.021 -34.312 161.625 C-35.43 160.082 -35.43 160.082 -37 159 C-40.111 158.943 -43.029 159.325 -46.109 159.746 C-50.183 160.104 -51.845 159.558 -55 157 C-55.968 154.58 -56.021 152.658 -55.938 150.074 C-55.797 145.396 -56.206 142.959 -59 139 C-59 138.34 -59 137.68 -59 137 C-58.649 136.909 -58.649 136.909 -56.875 136.449 C-51.114 134.923 -45.527 133.233 -40 131 C-40 131.66 -40 132.32 -40 133 C-39.34 133.103 -38.68 133.206 -38 133.312 C-34.84 134.037 -31.973 135.09 -28.965 136.281 C-23.005 138.461 -17.159 138.221 -10.875 138.25 C-9.784 138.271 -8.694 138.291 -7.57 138.312 C0.195 138.35 8.49 137.919 14.938 133.062 C17 131 17 131 18.25 128.688 C18.827 128.131 19.405 127.574 20 127 C21.973 127.219 21.973 127.219 24.312 127.688 C26.73 128.105 26.73 128.105 29 128 C30.841 126.339 32.09 124.55 33.516 122.527 C35 121 35 121 36.922 120.754 C38.875 121.062 38.875 121.062 42 122 C45.771 116.651 46.77 112.18 46.75 105.688 C46.753 104.825 46.755 103.962 46.758 103.073 C46.465 93.937 43.044 86.487 38.734 78.562 C38 77 38 77 38 75 C37.504 75.035 37.007 75.07 36.496 75.105 C27.507 75.464 21.724 71.7 15 66 C12.595 63.732 10.273 61.4 8 59 C7.89 59.543 7.781 60.085 7.668 60.645 C7.589 61.002 7.589 61.002 7.188 62.812 C7.112 63.166 7.112 63.166 6.73 64.957 C5.857 67.399 5.096 68.468 3 70 C-2.821 71.249 -8.016 70.445 -13.188 67.562 C-18.31 64.145 -22.186 59.794 -26 55 C-26.99 55.99 -27.98 56.98 -29 58 C-29.32 57.649 -29.32 57.649 -30.938 55.875 C-37.016 49.848 -43.82 46.283 -52 44 C-52.495 43.835 -52.495 43.835 -55 43 C-56.533 42.887 -58.069 42.822 -59.605 42.789 C-60.507 42.761 -61.409 42.732 -62.338 42.703 C-64.218 42.652 -66.098 42.607 -67.979 42.57 C-73.867 42.37 -78.64 41.482 -84 39 C-83.662 36.223 -83.411 34.465 -81.531 32.34 C-72.027 25.778 -60.26 24.279 -49 23 C-49.607 19.571 -50.894 17.572 -53.062 14.875 C-56 11.212 -56 11.212 -56 9 C-51.252 6.626 -45.63 7.476 -40.742 9.047 C-32.826 12.174 -32.826 12.174 -30 15 C-28.074 15.352 -28.074 15.352 -26 15 C-24.395 13.461 -24.395 13.461 -22.812 11.375 C-16.672 3.909 -9.742 -0.531 0 0 Z " fill="#46281A" transform="translate(121,13)" />
  <path d="M0 0 C0.495 0.681 0.99 1.361 1.5 2.062 C6.34 8.087 12.807 14.401 20.711 15.312 C26.263 15.546 26.263 15.546 29 15 C31.396 12.599 32.365 10.602 32.688 7.25 C32.791 6.177 32.894 5.105 33 4 C34.021 4.875 35.042 5.75 36.062 6.625 C36.701 7.17 37.339 7.716 37.996 8.277 C39.287 9.387 40.571 10.503 41.848 11.629 C42.141 11.886 42.141 11.886 43.625 13.188 C44.154 13.655 44.682 14.123 45.227 14.605 C49.62 18.06 52.163 19.107 57.75 18.938 C61.141 19.445 63.202 20.038 65.43 22.722 C71.022 31.614 73.776 41.286 73.875 51.75 C73.883 52.558 73.891 53.366 73.899 54.199 C73.656 60.237 71.582 64.199 68 69 C67.484 68.845 67.484 68.845 64.875 68.062 C62.922 67.754 62.922 67.754 61 68 C59.516 69.527 59.516 69.527 58.125 71.5 C56.668 73.496 56.668 73.496 55 75 C52.568 75.039 50.468 74.569 48.09 74.086 C46 74 46 74 44.629 75.102 C43.862 76.178 43.113 77.268 42.379 78.367 C39.03 82.333 32.957 83.956 28 85 C23.962 85.251 19.92 85.231 15.875 85.25 C14.784 85.271 13.694 85.291 12.57 85.312 C2.766 85.359 -5.158 83.037 -14 79 C-14 78.34 -14 77.68 -14 77 C-11.953 75.344 -11.953 75.344 -9.25 73.5 C-8.368 72.892 -7.487 72.283 -6.578 71.656 C-4.425 70.273 -2.315 69.082 0 68 C0.598 68.474 1.196 68.949 1.812 69.438 C7.116 73.226 13.762 72.558 20 72 C23.322 70.901 26.495 69.505 29 67 C29.041 65.334 29.043 63.666 29 62 C25.661 62.576 24.309 63.591 22 66 C17.173 67.609 11.027 68.11 6.168 66.328 C4.812 65.5 4.812 65.5 3 64 C3.435 62.666 3.873 61.333 4.312 60 C4.556 59.257 4.8 58.515 5.051 57.75 C5.571 56.242 6.115 54.739 6.757 53.278 C9.169 47.603 9.541 42.441 9.5 36.312 C9.495 35.343 9.49 34.373 9.485 33.375 C9.203 21.731 5.78 12.849 -2 4 C-1.34 2.68 -0.68 1.36 0 0 Z " fill="#F6BC94" transform="translate(95,67)" />
  <path d="M0 0 C0.423 0.165 0.423 0.165 2.562 1 C8.088 2.833 13.36 2.101 19 1 C20.791 4.803 21.117 7.457 20.812 11.625 C20.75 14.562 20.75 14.562 21 17 C23.312 18.625 23.312 18.625 26 20 C28.6 24.977 29.852 30.46 29 36 C27.803 37.379 26.509 38.493 25.113 39.668 C23.643 41.427 23.665 42.548 23.688 44.812 C23.791 45.864 23.894 46.916 24 48 C22.126 48.321 20.251 48.631 18.375 48.938 C17.331 49.112 16.287 49.286 15.211 49.465 C2.809 51.189 -9.693 51.199 -22.188 51.188 C-23.058 51.188 -23.929 51.188 -24.826 51.189 C-59.264 51.17 -59.264 51.17 -76 48 C-76.215 43.19 -76.207 39.415 -74 35 C-73.492 35.13 -72.984 35.26 -72.461 35.395 C-70.235 35.84 -68.271 36.092 -66 36 C-63.375 33.938 -63.375 33.938 -61.93 32.508 C-59.357 30.498 -56.514 29.479 -53.5 28.312 C-42.909 24.08 -33.76 17.144 -25.648 9.18 C-24 8 -24 8 -21.895 7.668 C-21.269 7.778 -20.644 7.887 -20 8 C-18.312 10.438 -18.312 10.438 -17 13 C-16 14 -16 14 -12.875 14.438 C-8.721 14.36 -6.414 12.65 -3.445 9.867 C-1.122 6.865 -0.462 3.713 0 0 Z " fill="#E79F36" transform="translate(125,181)" />
  <path d="M0 0 C8.18 4.421 14.325 10.391 17.062 19.438 C18.441 29.258 16.442 37.885 11.312 46.312 C3.838 53.372 -4.254 55.948 -14.426 55.684 C-22.094 54.932 -28.413 51.781 -33.938 46.438 C-39.545 39.564 -41.204 32.814 -40.938 24.062 C-40.144 16.267 -37.411 10.722 -31.715 5.336 C-22.729 -1.955 -11.043 -4.491 0 0 Z " fill="#ECDCCA" transform="translate(69.9375,76.5625)" />
  <path d="M0 0 C0.423 0.33 0.423 0.33 2.562 2 C3.037 2.321 3.511 2.642 4 2.973 C10.692 7.835 15.567 16.064 17.562 24 C18.892 37.416 18.009 48.242 9.875 59.25 C5.986 63.864 1.8 67.054 -3.438 70 C-3.996 70.327 -4.554 70.655 -5.129 70.992 C-12.823 75.211 -23.89 75.341 -32.438 74 C-42.883 70.892 -52.842 64.558 -58.207 54.934 C-63.917 44.087 -65.272 32.942 -62.789 20.84 C-58.802 10.087 -50.344 1.704 -40.438 -3.812 C-26.499 -9.33 -12.613 -8.035 0 0 Z M-38.438 10 C-38.744 10.212 -38.744 10.212 -40.293 11.285 C-46.044 15.687 -49.623 20.988 -51.07 28.117 C-52.119 37.603 -50.861 44.981 -45.312 52.812 C-40.538 58.528 -34.792 61.86 -27.438 63 C-17.782 63.844 -8.848 62.06 -1.195 55.879 C5.512 48.71 7.011 39.826 6.895 30.387 C6.155 22.843 2.654 17.704 -2.75 12.562 C-10.856 5.996 -18.551 5.046 -28.746 5.789 C-32.564 6.266 -35.383 7.746 -38.438 10 Z " fill="#999697" transform="translate(80.4375,69)" />
  <path d="M0 0 C2.974 -0.322 4.458 -0.416 6.875 1.438 C8.608 5.384 7.982 8.874 7 13 C5.562 15.875 5.562 15.875 4 18 C2.199 20.465 2 20.741 2 24 C5.688 23.502 7.605 22.899 10 20 C14.737 21.842 14.737 21.842 16.809 23.086 C19.655 24.273 21.751 23.986 24.812 23.75 C29.236 23.658 31.645 23.85 35 26.812 C36.004 27.871 37.004 28.934 38 30 C39.316 31.022 40.646 32.028 42 33 C32.966 41.985 20.545 50.884 8 54 C7.34 53.67 6.68 53.34 6 53 C6.99 51.68 7.98 50.36 9 49 C8.576 49.079 8.576 49.079 6.43 49.48 C-1.658 50.706 -10.161 51.386 -17.449 47.168 C-19.126 45.905 -20.557 44.522 -22 43 C-21.335 41.666 -20.668 40.333 -20 39 C-19.5 37.991 -19 36.981 -18.484 35.941 C-13.314 25.771 -13.314 25.771 -9.75 23.125 C-4.792 19.294 -3.84 13.829 -2.473 7.934 C-1.811 5.225 -0.921 2.631 0 0 Z " fill="#F7BC93" transform="translate(51,154)" />
  <path d="M0 0 C2.148 1.46 3.342 2.94 5 5 C5.33 5.33 5.66 5.66 6 6 C6.041 7.666 6.043 9.334 6 11 C6.516 10.959 6.516 10.959 9.125 10.75 C13.359 10.759 15.93 12.153 19 15 C21.667 18.289 22.499 20.965 22.285 25.234 C21.573 29.647 19.352 33.521 15.77 36.227 C13.301 37.305 10.926 37.373 8.25 37.625 C1.306 38.517 -1.175 41.604 -5.258 46.883 C-5.833 47.581 -6.408 48.28 -7 49 C-7.66 49 -8.32 49 -9 49 C-10.48 47.313 -10.48 47.313 -12.188 45 C-15.598 40.479 -19.221 36.215 -23 32 C-21.491 29.359 -20.045 27.049 -17.992 24.793 C-15.55 21.369 -15.006 18.586 -14.375 14.5 C-12.533 3.424 -12.533 3.424 -9.617 0.715 C-6.473 -0.675 -3.341 -0.664 0 0 Z " fill="#F8ECDB" transform="translate(192,144)" />
  <path d="M0 0 C6.966 4.732 12.127 11.284 14.781 19.332 C16.454 28.593 15.792 38.193 11.168 46.473 C5.882 53.852 -0.571 60.183 -9.695 62.062 C-21.817 63.648 -30.721 62.634 -40.832 55.473 C-47.316 50.016 -52.045 43.164 -53.051 34.613 C-53.7 26.242 -53.492 18.717 -48.832 11.473 C-48.408 10.778 -47.984 10.083 -47.547 9.367 C-36.53 -6.99 -16.356 -9.656 0 0 Z M-34.832 4.473 C-35.138 4.685 -35.138 4.685 -36.688 5.758 C-42.438 10.16 -46.017 15.46 -47.465 22.59 C-48.514 32.075 -47.255 39.453 -41.707 47.285 C-36.933 53 -31.187 56.332 -23.832 57.473 C-14.177 58.316 -5.243 56.533 2.41 50.352 C9.117 43.183 10.616 34.298 10.5 24.859 C9.76 17.316 6.259 12.177 0.855 7.035 C-7.25 0.468 -14.946 -0.481 -25.141 0.261 C-28.959 0.738 -31.777 2.219 -34.832 4.473 Z " fill="#25140E" transform="translate(76.83203125,74.52734375)" />
  <path d="M0 0 C11.124 6.888 21.752 18.937 27 31 C28.093 35.879 27.716 39.398 25.688 43.938 C25.131 44.618 24.574 45.299 24 46 C23.546 46.557 23.093 47.114 22.625 47.688 C19.41 50.284 16.394 51.113 12.328 51.051 C11.23 51.034 10.132 51.017 9 51 C8.85 50.442 8.699 49.885 8.544 49.31 C5.044 36.431 1.471 23.629 -4.676 11.719 C-6 9 -6 9 -6 6.938 C-4.505 4.042 -2.391 2.207 0 0 Z " fill="#F7BE94" transform="translate(155,173)" />
  <path d="M0 0 C11.284 4.982 18.251 12.281 23.176 23.734 C25.537 33.088 25.78 46.111 21.387 54.836 C16.363 62.675 11.152 68.416 3 73 C2.442 73.327 1.884 73.655 1.309 73.992 C-4.654 77.261 -11.07 77.182 -17.688 77.188 C-18.446 77.2 -19.205 77.212 -19.986 77.225 C-20.351 77.226 -20.351 77.226 -22.199 77.23 C-22.528 77.233 -22.528 77.233 -24.194 77.243 C-26.272 76.963 -27.364 76.278 -29 75 C-28.01 74.835 -28.01 74.835 -23 74 C-23 73.34 -23 72.68 -23 72 C-20.916 70.958 -19.697 70.807 -17.402 70.641 C-6.251 69.694 1.231 68.119 9.312 59.875 C15.807 52.006 17.912 43.419 17.371 33.355 C16.286 23.544 11.291 16.43 4 10 C2.037 8.854 0.08 7.932 -2 7 C-1.34 4.69 -0.68 2.38 0 0 Z " fill="#959193" transform="translate(74,66)" />
  <path d="M0 0 C3.406 1.683 6.204 3.581 8 7 C8.301 8.938 8.301 8.938 8.312 11 C8.329 11.681 8.346 12.361 8.363 13.062 C8 15 8 15 6.5 16.477 C4.525 18.482 4.702 19.611 4.688 22.375 C4.397 25.801 3.977 27.68 1.438 30.062 C-1.629 32.175 -4.286 32.673 -7.973 32.426 C-12.235 31.531 -15.724 29.608 -18.438 26.188 C-20.272 19.053 -18.436 14.852 -14.777 8.602 C-11.069 3.174 -7.06 -1.502 0 0 Z " fill="#F8BD93" transform="translate(35,143)" />
  <path d="M0 0 C3.194 1.524 5.362 2.848 7 6 C7.815 12.053 7.339 17.796 4 23 C1.632 25.719 -0.449 26.261 -3.938 26.562 C-7.001 26.408 -8.777 25.897 -11 23.75 C-14.227 19.183 -13.858 13.314 -13 8 C-9.906 1.982 -7.026 -0.86 0 0 Z " fill="#29150B" transform="translate(74,96)" />
  <path d="M0 0 C0 1.98 0 3.96 0 6 C-6 5 -6 5 -8.688 4.438 C-19.406 3.022 -28.163 4.235 -37.242 10.562 C-40.044 12.888 -41.965 14.947 -44 18 C-46.64 17.67 -49.28 17.34 -52 17 C-47.73 8.09 -40.302 1.425 -31 -2 C-20.268 -5.51 -10.1 -5.005 0 0 Z " fill="#B6B4B4" transform="translate(74,66)" />
  <path d="M0 0 C1.862 1.31 2.762 2.105 3.688 4.188 C4.222 7.571 3.851 8.917 2.062 11.875 C-0.78 14.643 -2.413 15.452 -6.312 16.188 C-14.45 16.05 -14.45 16.05 -17.312 13.188 C-18.078 10.255 -18.512 8.034 -17.812 5.062 C-13.285 -0.597 -6.829 -2.399 0 0 Z " fill="#FCAC87" transform="translate(158.3125,117.8125)" />
  <path d="M0 0 C2.375 1.625 2.375 1.625 4 4 C4.648 7.728 4.195 10.086 2.25 13.25 C0.433 15.677 -1.021 17.124 -4 18 C-7.785 18.483 -9.529 18.266 -12.875 16.375 C-15 14 -15 14 -15.562 11.062 C-14.692 6.323 -12.38 4.053 -8.625 1.188 C-5.43 -0.258 -3.469 -0.517 0 0 Z " fill="#553019" transform="translate(136,200)" />
  <path d="M0 0 C2.405 2.035 3.828 3.493 4.195 6.715 C3.907 10.588 2.649 13.528 -0.27 16.121 C-3.882 17.956 -8.101 17.793 -12 17 C-14.54 15.065 -14.94 14.344 -15.5 11.125 C-14.836 6.975 -13.158 5.566 -10 3 C-9.361 2.402 -8.721 1.804 -8.062 1.188 C-5.133 -0.499 -3.32 -0.553 0 0 Z " fill="#51301A" transform="translate(99,204)" />
  <path d="M0 0 C0 0.66 0 1.32 0 2 C0.99 2.33 1.98 2.66 3 3 C3.33 4.65 3.66 6.3 4 8 C3.408 8.364 2.817 8.727 2.207 9.102 C-4.487 13.36 -9.492 17.248 -12 25 C-13.93 24.289 -13.93 24.289 -16 23 C-17.294 19.686 -17.381 16.517 -17 13 C-14.078 6.639 -7.43 -0.519 0 0 Z " fill="#FCFBF9" transform="translate(49,77)" />
  <path d="M0 0 C2.438 1.688 2.438 1.688 4 4 C4.375 6.625 4.375 6.625 4 9 C0.424 12.576 -5.138 12.301 -10 13 C-10.825 13.138 -11.65 13.276 -12.5 13.418 C-14.321 13.703 -16.161 13.864 -18 14 C-18.66 13.34 -19.32 12.68 -20 12 C-19.898 9.578 -19.898 9.578 -19 7 C-17.039 5.234 -17.039 5.234 -14.625 3.75 C-13.834 3.25 -13.042 2.75 -12.227 2.234 C-8.285 0.049 -4.456 -0.729 0 0 Z " fill="#2F180A" transform="translate(141,90)" />
  <path d="M0 0 C2.379 0.956 4.695 1.963 6.992 3.102 C6.992 5.082 6.992 7.062 6.992 9.102 C0.992 8.102 0.992 8.102 -1.695 7.539 C-8.174 6.683 -14.623 6.647 -21.008 8.102 C-21.008 7.112 -21.008 6.122 -21.008 5.102 C-19.028 4.772 -17.048 4.442 -15.008 4.102 C-15.008 3.442 -15.008 2.782 -15.008 2.102 C-16.328 1.772 -17.648 1.442 -19.008 1.102 C-13.291 -2.285 -6.217 -1.857 0 0 Z " fill="#ABA9AA" transform="translate(67.0078125,62.8984375)" />
  <path d="M0 0 C3.332 0.698 5.615 1.67 8.012 4.215 C10.194 8.157 9.69 12.683 9 17 C7.394 21.126 4.979 23.186 1 25 C-0.292 16.692 -0.093 8.381 0 0 Z " fill="#EBB088" transform="translate(179,110)" />
  <path d="M0 0 C0.66 0.33 1.32 0.66 2 1 C1.466 6.14 0.106 9.412 -3.688 13 C-6.335 15.099 -8.34 16.474 -11.75 16.688 C-15.469 15.901 -16.804 15.074 -19 12 C-19 11.01 -19 10.02 -19 9 C-20.32 8.67 -21.64 8.34 -23 8 C-22.625 7.999 -22.625 7.999 -20.727 7.992 C-12.705 7.689 -5.854 5.854 0 0 Z " fill="#5D361B" transform="translate(124,180)" />
  <path d="M0 0 C0.124 0.639 0.248 1.279 0.375 1.938 C0.581 2.618 0.787 3.299 1 4 C1.66 4.33 2.32 4.66 3 5 C-3.285 8.442 -9.089 9.18 -16.188 9.188 C-16.803 9.2 -17.419 9.212 -18.053 9.225 C-21.262 9.235 -23.566 9.239 -26 7 C-25.67 6.34 -25.34 5.68 -25 5 C-24.34 5 -23.68 5 -23 5 C-23 4.34 -23 3.68 -23 3 C-22.178 3.035 -21.355 3.07 -20.508 3.105 C-13.093 3.285 -7.032 2.667 0 0 Z " fill="#34231A" transform="translate(73,128)" />
  <path d="M0 0 C0.66 0.66 1.32 1.32 2 2 C1.34 2.33 1.34 2.33 -2 4 C-1.67 4.66 -1.34 5.32 -1 6 C-1.701 6.026 -2.403 6.052 -3.125 6.078 C-9.671 6.469 -14.39 7.626 -20 11 C-20.33 11.165 -20.33 11.165 -22 12 C-22.66 11.67 -23.32 11.34 -24 11 C-23.649 10.381 -23.299 9.763 -22.938 9.125 C-22.628 8.424 -22.319 7.722 -22 7 C-22.33 6.34 -22.66 5.68 -23 5 C-15.394 1.283 -8.663 -1.475 0 0 Z " fill="#321F18" transform="translate(62,69)" />
  <path d="M0 0 C2.466 1.078 3.941 2.219 6 4 C5.67 5.32 5.34 6.64 5 8 C2.604 7.858 0.208 7.712 -2.188 7.562 C-2.861 7.523 -3.535 7.484 -4.229 7.443 C-7.9 7.211 -11.403 6.831 -15 6 C-14.393 2.36 -14.393 2.36 -12.789 0.891 C-8.896 -1.047 -4.214 -0.516 0 0 Z " fill="#24130A" transform="translate(136,112)" />
  <path d="M0 0 C3.118 0.75 6.181 1.634 9.25 2.562 C10.142 2.832 11.034 3.101 11.953 3.379 C12.629 3.584 13.304 3.789 14 4 C12.906 6.891 11.839 9.504 10 12 C5.363 11.454 2.707 9.672 -1 7 C-0.67 4.69 -0.34 2.38 0 0 Z " fill="#776E6C" transform="translate(15,178)" />
  <path d="M0 0 C-0.268 0.784 -0.536 1.567 -0.812 2.375 C-1.211 3.582 -1.607 4.791 -2 6 C-2.253 6.773 -2.505 7.547 -2.766 8.344 C-4.417 13.589 -5.493 18.524 -6 24 C-6.33 24 -6.66 24 -7 24 C-7.097 18.547 -7.126 13.35 -6 8 C-7.32 7.67 -8.64 7.34 -10 7 C-9.125 1.25 -9.125 1.25 -8 -1 C-4.377 -2.208 -3.359 -1.543 0 0 Z " fill="#ABAAAA" transform="translate(29,84)" />
  <path d="M0 0 C3.048 0.064 4.455 0.222 7.188 1.688 C8.625 3.312 8.625 3.312 8.625 5.312 C5.047 6.437 1.586 6.428 -2.125 6.375 C-2.727 6.37 -3.329 6.366 -3.949 6.361 C-5.425 6.35 -6.9 6.332 -8.375 6.312 C-6.305 1.878 -5.053 0.025 0 0 Z " fill="#543117" transform="translate(117.375,225.6875)" />
  <path d="M0 0 C0.33 0 0.66 0 1 0 C1.66 4.62 2.32 9.24 3 14 C0.36 14.33 -2.28 14.66 -5 15 C-6.468 8.759 -6.468 8.759 -4.188 5.062 C-2 3 -2 3 0 3 C0 2.01 0 1.02 0 0 Z " fill="#5A3318" transform="translate(154,214)" />
  <path d="M0 0 C0.748 0.482 1.495 0.964 2.266 1.461 C3.26 2.099 4.255 2.737 5.25 3.375 C5.496 3.534 5.496 3.534 6.738 4.336 C9.427 6.056 12.112 7.639 15 9 C15 10.32 15 11.64 15 13 C9.491 12.559 6.241 11.635 2 8 C1.188 5.438 1.188 5.438 1 3 C0.67 2.01 0.34 1.02 0 0 Z " fill="#1E0F0A" transform="translate(35,122)" />
  <path d="M0 0 C2.375 1.312 2.375 1.312 4 3 C4 3.99 4 4.98 4 6 C2.25 6.054 0.5 6.093 -1.25 6.125 C-2.225 6.148 -3.199 6.171 -4.203 6.195 C-7.02 5.999 -8.609 5.446 -11 4 C-7.325 0.541 -5.263 -0.784 0 0 Z " fill="#5D3719" transform="translate(72,225)" />
  <path d="M0 0 C1.675 0.286 3.344 0.618 5 1 C5 1.66 5 2.32 5 3 C4.227 3.291 3.453 3.583 2.656 3.883 C-3.4 6.266 -8.431 8.638 -13.477 12.863 C-15 14 -15 14 -17 14 C-16.698 11.184 -16.087 10.087 -14.062 8.062 C-10.699 5.562 -6.878 3.851 -3.109 2.051 C-1 1 -1 1 0 0 Z " fill="#DDDEDF" transform="translate(47,64)" />
  <path d="M0 0 C0.33 1.32 0.66 2.64 1 4 C1.619 3.814 2.238 3.629 2.875 3.438 C5 3 5 3 7 4 C6.675 7.574 6.361 9.557 4.062 12.375 C2 14 2 14 0 14 C0 9.38 0 4.76 0 0 Z " fill="#F4C19D" transform="translate(180,121)" />
  <path d="M0 0 C2.296 2.296 2.323 3.008 2.625 6.125 C2.7 6.849 2.775 7.574 2.852 8.32 C2.876 8.597 2.876 8.597 3 10 C1 11 1 11 -3 10 C-3 14.29 -3 18.58 -3 23 C-3.33 23 -3.66 23 -4 23 C-4.33 17.39 -4.66 11.78 -5 6 C-3.68 5.34 -2.36 4.68 -1 4 C-0.25 1.875 -0.25 1.875 0 0 Z " fill="#3A2319" transform="translate(102,86)" />
  <path d="M0 0 C0.33 0.66 0.66 1.32 1 2 C-0.98 2 -2.96 2 -5 2 C-5.248 2.619 -5.495 3.237 -5.75 3.875 C-7.206 6.351 -8.378 6.951 -11 8 C-11 9.98 -11 11.96 -11 14 C-11.33 14.165 -11.33 14.165 -13 15 C-13.295 9.979 -13.206 7.123 -10 3 C-6.798 -0.202 -4.439 -0.303 0 0 Z " fill="#302119" transform="translate(74,96)" />
  <path d="M0 0 C0.75 1.75 0.75 1.75 1 4 C-0.688 6.25 -0.688 6.25 -3 8 C-5.25 8.25 -5.25 8.25 -7 8 C-7 7.01 -7 6.02 -7 5 C-8.65 5 -10.3 5 -12 5 C-12 4.67 -12 4.34 -12 4 C-11.469 3.879 -10.938 3.758 -10.391 3.633 C-6.696 2.756 -3.311 1.932 0 0 Z " fill="#DBCFBE" transform="translate(80,118)" />
  <path d="M0 0 C0.99 0.33 1.98 0.66 3 1 C2.069 2.296 1.13 3.587 0.188 4.875 C-0.335 5.594 -0.857 6.314 -1.395 7.055 C-2.847 8.814 -4.038 9.88 -6 11 C-6.66 10.01 -7.32 9.02 -8 8 C-5.333 5.333 -2.667 2.667 0 0 Z " fill="#E9DBC9" transform="translate(191,181)" />
  <path d="M0 0 C0.99 0.66 1.98 1.32 3 2 C2.064 3.106 1.126 4.209 0.188 5.312 C-0.074 5.62 -0.074 5.62 -1.395 7.176 C-2.872 8.854 -4.4 10.439 -6 12 C-6.33 11.01 -6.66 10.02 -7 9 C-5.82 6.992 -5.82 6.992 -4.125 4.875 C-3.571 4.171 -3.016 3.467 -2.445 2.742 C-1 1 -1 1 0 0 Z " fill="#E0D7CE" transform="translate(39,81)" />
  <path d="M0 0 C3.247 3.529 3.556 6.38 4 11 C0.125 10.125 0.125 10.125 -1 9 C-1.237 2.475 -1.237 2.475 0 0 Z " fill="#633819" transform="translate(146,189)" />
  <path d="M0 0 C0 0.66 0 1.32 0 2 C0.66 2.33 1.32 2.66 2 3 C0.928 3.227 -0.145 3.454 -1.25 3.688 C-5.29 4.81 -6.732 6.553 -9 10 C-9.66 9.67 -10.32 9.34 -11 9 C-10.505 8.567 -10.01 8.134 -9.5 7.688 C-8 6 -8 6 -8 3 C-5.381 0.474 -3.633 -0.389 0 0 Z " fill="#F2EEE7" transform="translate(49,77)" />
  <path d="M0 0 C1.078 0.018 2.155 0.036 3.266 0.055 C3.676 0.066 3.676 0.066 5.75 0.125 C5.75 0.785 5.75 1.445 5.75 2.125 C5.401 2.149 5.401 2.149 3.633 2.273 C2.723 2.348 1.813 2.423 0.875 2.5 C-0.03 2.57 -0.935 2.639 -1.867 2.711 C-4.25 3.125 -4.25 3.125 -6.25 5.125 C-6.25 4.465 -6.25 3.805 -6.25 3.125 C-7.57 2.795 -8.89 2.465 -10.25 2.125 C-6.773 -0.018 -4.038 -0.088 0 0 Z " fill="#B5B2B1" transform="translate(58.25,61.875)" />
  <path d="M0 0 C0.66 0.33 1.32 0.66 2 1 C1.711 1.557 1.422 2.114 1.125 2.688 C-1.38 7.837 -2.465 12.331 -3 18 C-3.66 17.67 -4.32 17.34 -5 17 C-5.734 10.245 -3.276 5.815 0 0 Z " fill="#DCAE8B" transform="translate(21,150)" />
  <path d="M0 0 C0.66 0.66 1.32 1.32 2 2 C2.66 1.67 3.32 1.34 4 1 C4.603 6.182 4.603 6.182 2.887 8.512 C1.645 9.732 0.326 10.873 -1 12 C-0.67 8.04 -0.34 4.08 0 0 Z " fill="#1C0C07" transform="translate(88,100)" />
  <path d="M0 0 C1.65 0.33 3.3 0.66 5 1 C5 2.65 5 4.3 5 6 C2.36 5.67 -0.28 5.34 -3 5 C-2.01 3.35 -1.02 1.7 0 0 Z " fill="#BABABA" transform="translate(25,78)" />
  <path d="M0 0 C-2 2 -2 2 -4.82 2.195 C-5.911 2.172 -7.001 2.149 -8.125 2.125 C-9.221 2.107 -10.316 2.089 -11.445 2.07 C-12.288 2.047 -13.131 2.024 -14 2 C-14.33 1.34 -14.66 0.68 -15 0 C-9.801 -1.2 -5.256 -0.759 0 0 Z " fill="#1F0D07" transform="translate(66,135)" />
  <path d="M0 0 C1 3 1 3 0.375 5.125 C-1 7 -1 7 -3.625 7.75 C-4.017 7.791 -4.017 7.791 -6 8 C-5.67 6.02 -5.34 4.04 -5 2 C-4.01 2 -3.02 2 -2 2 C-1.34 1.34 -0.68 0.68 0 0 Z " fill="#35241D" transform="translate(91,107)" />
  <title>우가 스티커 — 찾기</title>
</svg>