<?xml version='1.0' encoding='utf-8'?>
<svg xmlns="http://www.w3.org/2000/svg" version="1.1" width="109" height="107" viewBox="0 0 109 107" role="img" aria-label="우가 소품 — star">
  <path d="M0 0 C0.741 -0.008 1.482 -0.015 2.246 -0.023 C6.645 0.733 9.35 2.857 11.949 6.371 C12.726 7.511 13.493 8.659 14.25 9.812 C14.64 10.385 15.03 10.958 15.432 11.549 C17.361 14.416 19.051 17.261 20.562 20.375 C20.829 20.38 20.829 20.38 22.18 20.403 C24.641 20.458 27.102 20.541 29.562 20.625 C30.402 20.639 31.241 20.653 32.105 20.668 C38.937 20.933 44.288 22.612 49.562 27.062 C51.518 31.584 51.432 36.037 49.719 40.645 C46.658 46.548 42.419 51.84 37.562 56.375 C36.903 56.375 36.243 56.375 35.562 56.375 C35.828 57.232 36.094 58.089 36.367 58.973 C37.096 61.328 37.819 63.685 38.539 66.043 C39.104 67.883 39.676 69.721 40.273 71.551 C41.896 76.664 42.626 81.147 40.25 86.125 C36.584 91.013 36.584 91.013 33.723 92.027 C25.397 93.159 17.68 90.459 10.625 86.062 C7.562 84.375 7.562 84.375 5.215 84.523 C2.006 85.554 -0.331 87.25 -2.938 89.312 C-8.495 93.664 -13.09 95.932 -20.219 95.754 C-23.868 95.131 -26.31 93.375 -28.438 90.375 C-30.344 85.931 -30.607 82.236 -30.125 77.5 C-30.079 76.884 -30.033 76.269 -29.985 75.634 C-29.715 72.284 -29.134 69.23 -28.25 66 C-27.988 64.164 -27.988 64.164 -28.438 62.375 C-30.684 60.06 -33.088 58.268 -35.715 56.398 C-39.981 53.228 -44.037 49.175 -46.438 44.375 C-46.978 40.443 -46.99 36.672 -45.062 33.125 C-39.843 26.433 -29.773 25.723 -21.93 24.672 C-21.518 24.623 -21.518 24.623 -19.438 24.375 C-19.292 23.952 -19.292 23.952 -18.555 21.812 C-10.737 -0.112 -10.737 -0.112 0 0 Z " fill="#F9BA46" transform="translate(52.4375,5.625)" />
  <path d="M0 0 C0.741 -0.008 1.482 -0.015 2.246 -0.023 C6.645 0.733 9.35 2.857 11.949 6.371 C12.726 7.511 13.493 8.659 14.25 9.812 C14.64 10.385 15.03 10.958 15.432 11.549 C17.361 14.416 19.051 17.261 20.562 20.375 C20.829 20.38 20.829 20.38 22.18 20.403 C24.641 20.458 27.102 20.541 29.562 20.625 C30.402 20.639 31.241 20.653 32.105 20.668 C38.937 20.933 44.288 22.612 49.562 27.062 C51.518 31.584 51.432 36.037 49.719 40.645 C46.658 46.548 42.419 51.84 37.562 56.375 C36.903 56.375 36.243 56.375 35.562 56.375 C35.828 57.232 36.094 58.089 36.367 58.973 C37.096 61.328 37.819 63.685 38.539 66.043 C39.104 67.883 39.676 69.721 40.273 71.551 C41.896 76.664 42.626 81.147 40.25 86.125 C36.584 91.013 36.584 91.013 33.723 92.027 C25.397 93.159 17.68 90.459 10.625 86.062 C7.562 84.375 7.562 84.375 5.215 84.523 C2.006 85.554 -0.331 87.25 -2.938 89.312 C-8.495 93.664 -13.09 95.932 -20.219 95.754 C-23.868 95.131 -26.31 93.375 -28.438 90.375 C-30.344 85.931 -30.607 82.236 -30.125 77.5 C-30.079 76.884 -30.033 76.269 -29.985 75.634 C-29.715 72.284 -29.134 69.23 -28.25 66 C-27.988 64.164 -27.988 64.164 -28.438 62.375 C-30.684 60.06 -33.088 58.268 -35.715 56.398 C-39.981 53.228 -44.037 49.175 -46.438 44.375 C-46.978 40.443 -46.99 36.672 -45.062 33.125 C-39.843 26.433 -29.773 25.723 -21.93 24.672 C-21.518 24.623 -21.518 24.623 -19.438 24.375 C-19.292 23.952 -19.292 23.952 -18.555 21.812 C-10.737 -0.112 -10.737 -0.112 0 0 Z M-6.438 11.375 C-7.813 13.842 -9.011 16.371 -10.188 18.938 C-10.503 19.597 -10.819 20.256 -11.145 20.936 C-11.442 21.577 -11.74 22.218 -12.047 22.879 C-12.315 23.455 -12.582 24.03 -12.858 24.623 C-13.52 26.624 -13.54 28.281 -13.438 30.375 C-14.422 30.338 -15.407 30.3 -16.422 30.262 C-20.69 30.265 -24.57 31.131 -28.688 32.188 C-29.394 32.353 -30.1 32.519 -30.828 32.689 C-37.335 34.322 -37.335 34.322 -39.438 37.375 C-40.062 40.062 -40.062 40.062 -39.438 43.375 C-35.157 49.935 -27.932 56.877 -20.438 59.375 C-20.654 60.067 -20.871 60.759 -21.094 61.473 C-22.823 67.55 -23.757 73.132 -23.812 79.438 C-23.826 80.08 -23.84 80.723 -23.854 81.385 C-23.827 84.161 -23.703 85.989 -22.109 88.305 C-19.841 89.757 -18.052 89.581 -15.461 89.078 C-9.108 86.87 -3.853 82.136 0.762 77.379 C3.644 75.772 5.44 76.497 8.562 77.375 C11.083 78.593 13.467 80.013 15.875 81.438 C20.946 84.297 24.952 86.284 30.926 85.852 C32.562 85.375 32.562 85.375 34.562 83.375 C36.291 76.562 33.218 70.117 30.609 63.96 C28.54 58.959 28.54 58.959 28.648 56.129 C29.848 53.826 31.341 52.385 33.25 50.625 C38.037 45.993 42.478 41.508 44.688 35.125 C44.562 32.375 44.562 32.375 42.75 30.062 C39.446 27.513 37.961 27.304 33.871 27.586 C18.843 28.157 18.843 28.157 14.727 24.94 C11.852 21.376 10.176 17.382 8.454 13.175 C6.994 10.227 5.074 8.485 2.562 6.375 C-2.292 5.191 -3.933 7.612 -6.438 11.375 Z " fill="#271204" transform="translate(52.4375,5.625)" />
  <path d="M0 0 C1.32 0.33 2.64 0.66 4 1 C2.831 4.117 1.473 7.052 -0.062 10 C-1.304 12.411 -2.007 14.043 -2.438 16.75 C-3.267 20.068 -5.254 21.104 -8 23 C-8.536 23.413 -9.072 23.825 -9.625 24.25 C-11 25 -11 25 -14 25 C-14 23.68 -14 22.36 -14 21 C-13.228 20.961 -12.456 20.923 -11.66 20.883 C-9 20 -9 20 -7.559 17.305 C-7.166 16.168 -6.793 15.024 -6.438 13.875 C-6.03 12.69 -5.619 11.506 -5.203 10.324 C-5.004 9.752 -4.805 9.18 -4.6 8.591 C-3.433 5.495 -1.754 2.793 0 0 Z " fill="#F6D37D" transform="translate(47,16)" />
  <path d="M0 0 C0 0.66 0 1.32 0 2 C-0.759 2.098 -1.519 2.196 -2.301 2.297 C-3.295 2.446 -4.289 2.596 -5.312 2.75 C-6.299 2.889 -7.285 3.028 -8.301 3.172 C-11.468 4.144 -12.334 5.202 -14 8 C-14.364 3.51 -14.364 3.51 -12.75 1.25 C-8.534 -1.762 -4.848 -0.839 0 0 Z " fill="#F6D06F" transform="translate(27,40)" />
  <title>우가 소품 — star</title>
</svg>