<?xml version='1.0' encoding='utf-8'?>
<svg xmlns="http://www.w3.org/2000/svg" version="1.1" width="132" height="135" viewBox="0 0 132 135" role="img" aria-label="우가 아바타 — sleep">
  <path d="M0 0 C3.595 2.767 6.816 5.773 10 9 C10.361 9.356 10.361 9.356 12.188 11.156 C23.608 23.096 28.666 39.344 28.475 55.647 C27.8 72.02 21.509 85.433 10 97 C9.698 97.32 9.698 97.32 8.168 98.938 C-2.234 109.09 -17.951 114.009 -32.266 114.09 C-41.365 113.89 -49.499 112.328 -58 109 C-58.429 108.843 -58.429 108.843 -60.602 108.047 C-72.574 102.954 -81.746 91.623 -87 80 C-93.903 61.976 -93.779 44.615 -86.715 26.75 C-83.32 19.337 -78.778 13.701 -73 8 C-72.288 7.278 -71.577 6.556 -70.844 5.812 C-51.522 -12.669 -22.194 -13.803 0 0 Z " fill="#492A1A" transform="translate(98,15)" />
  <path d="M0 0 C3.595 2.767 6.816 5.773 10 9 C10.361 9.356 10.361 9.356 12.188 11.156 C23.608 23.096 28.666 39.344 28.475 55.647 C28.027 66.514 24.988 77.834 19 87 C18.67 87.165 18.67 87.165 17 88 C16.375 85.688 16.375 85.688 16 83 C16.157 82.769 16.157 82.769 16.953 81.602 C19.005 78.462 18.529 74.593 18 71 C16.879 68.777 15.497 67.012 14 65 C13.723 62.717 14.007 60.956 14.375 58.688 C13.77 54.351 11.272 51.789 8 49 C5.09 47.382 2.133 46.121 -1 45 C-0.67 43.02 -0.34 41.04 0 39 C-4.852 34.894 -9.698 33.589 -16 34 C-16.563 34.164 -17.127 34.327 -17.707 34.496 C-20.994 35.218 -24.207 35.224 -27.562 35.25 C-28.235 35.271 -28.907 35.291 -29.6 35.312 C-34.573 35.352 -34.573 35.352 -36.844 33.48 C-37.225 32.992 -37.607 32.503 -38 32 C-38.639 32.021 -39.279 32.041 -39.938 32.062 C-40.618 32.042 -41.299 32.021 -42 32 C-42.598 31.34 -43.196 30.68 -43.812 30 C-46.158 27.856 -46.567 27.688 -49.562 27.625 C-53.965 28.105 -53.965 28.105 -56 30 C-56.73 32.164 -56.73 32.164 -57.188 34.625 C-57.346 35.442 -57.505 36.26 -57.668 37.102 C-57.778 37.728 -57.887 38.355 -58 39 C-58.724 39.026 -59.449 39.052 -60.195 39.078 C-66.362 39.44 -70.228 40.001 -75 44 C-74.482 47.197 -73.89 49.381 -72 52 C-72.699 52.545 -73.397 53.091 -74.117 53.652 C-79.491 58.037 -83 61.125 -83.914 68.348 C-83.942 68.893 -83.971 69.438 -84 70 C-82.35 70 -80.7 70 -79 70 C-79.277 70.508 -79.554 71.016 -79.84 71.539 C-82.055 75.749 -83.526 79.26 -84 84 C-86.741 80.797 -87.984 77.555 -89.125 73.562 C-89.294 73.002 -89.463 72.442 -89.637 71.865 C-94.806 54.426 -92.279 36.727 -83.758 20.777 C-80.716 15.972 -77.037 11.983 -73 8 C-72.288 7.278 -71.577 6.556 -70.844 5.812 C-51.522 -12.669 -22.194 -13.803 0 0 Z " fill="#F57674" transform="translate(98,15)" />
  <path d="M0 0 C0.69 0.217 1.379 0.433 2.09 0.656 C6.806 2.054 10.7 3.2 15.625 2.625 C18.847 2.474 19.842 2.882 22.488 4.852 C30.747 12.939 30.747 12.939 31.195 18.359 C31.172 19.148 31.149 19.937 31.125 20.75 C31.107 21.549 31.089 22.348 31.07 23.172 C31.047 23.775 31.024 24.378 31 25 C30.01 25.33 29.02 25.66 28 26 C26.812 28.062 26.812 28.062 26 30 C24.68 30 23.36 30 22 30 C21.969 30.454 21.969 30.454 21.812 32.75 C20.998 36.009 20.377 37.175 17.641 39.062 C8.722 44.159 -1.627 47.563 -12 46 C-13.687 44.693 -15.354 43.358 -17 42 C-19.379 41.688 -19.379 41.688 -22.062 41.562 C-25.557 41.313 -26.695 41.231 -29.562 39.062 C-32.576 32.643 -32.624 25.648 -30.859 18.828 C-29.448 15.826 -26.965 15.221 -24 14 C-21.13 11.275 -19.254 8.763 -18 5 C-17.237 5.33 -16.474 5.66 -15.688 6 C-10.946 7.622 -5.943 7.158 -1 7 C-0.67 4.69 -0.34 2.38 0 0 Z " fill="#F4BA92" transform="translate(67,75)" />
  <path d="M0 0 C1.422 1.16 1.422 1.16 2.688 2.562 C3.451 3.367 4.214 4.171 5 5 C7.312 4.812 7.312 4.812 9 4 C9.251 4.488 9.501 4.976 9.76 5.479 C11 7 11 7 12.756 7.356 C13.445 7.347 14.134 7.338 14.844 7.328 C15.595 7.323 16.347 7.318 17.121 7.312 C17.906 7.292 18.691 7.271 19.5 7.25 C19.893 7.247 19.893 7.247 21.879 7.234 C27.691 7.155 27.691 7.155 30 6 C35.507 5.328 40.395 7.016 45 10 C46.32 12 46.32 12 47 14 C46.125 16.25 46.125 16.25 45 18 C45.412 18.01 45.412 18.01 47.5 18.062 C52.783 18.905 57.05 23.498 60.227 27.574 C61.639 30.178 61.119 33.08 60.75 35.938 C61 38 61 38 63 40.688 C65.77 44.558 65.597 48.405 65 53 C64.387 54.687 63.729 56.36 63 58 C63.08 58.759 63.16 59.519 63.242 60.301 C62.899 64.128 60.792 65.918 58.125 68.438 C57.876 68.678 57.876 68.678 56.618 69.897 C52.17 74.077 47.45 77.244 42 80 C41.308 80.376 40.616 80.753 39.902 81.141 C25.748 88.231 9.071 88.571 -5.938 84.25 C-7.971 83.534 -9.993 82.786 -12 82 C-12.859 81.685 -13.717 81.371 -14.602 81.047 C-24.333 76.907 -33.728 67.753 -38 58 C-38.995 52.896 -37.612 49.609 -34.875 45.285 C-34.731 45.073 -34.731 45.073 -34 44 C-35.32 43.67 -36.64 43.34 -38 43 C-38.551 39.22 -38.757 37.124 -36.582 33.895 C-34.786 31.853 -32.935 29.91 -31 28 C-30.598 27.588 -30.598 27.588 -28.562 25.5 C-28.047 25.005 -27.531 24.51 -27 24 C-27.516 23.608 -28.031 23.216 -28.562 22.812 C-30 21 -30 21 -30.062 18.562 C-28.898 15.754 -27.635 14.304 -25.031 12.715 C-20.847 11.242 -16.367 11.72 -12 12 C-11.974 11.385 -11.948 10.77 -11.922 10.137 C-11.462 3.587 -11.462 3.587 -9.375 0.938 C-6.183 -0.322 -3.332 -0.848 0 0 Z M-7 3 C-8.382 5.765 -8.095 8.046 -8.062 11.125 C-8.053 12.221 -8.044 13.316 -8.035 14.445 C-8.024 15.288 -8.012 16.131 -8 17 C-8.705 16.836 -9.41 16.673 -10.137 16.504 C-13.097 15.983 -15.811 15.901 -18.812 15.938 C-19.788 15.947 -20.764 15.956 -21.77 15.965 C-22.506 15.976 -23.242 15.988 -24 16 C-24.66 17.32 -25.32 18.64 -26 20 C-25.031 20.619 -24.061 21.237 -23.062 21.875 C-20.125 23.75 -20.125 23.75 -19 26 C-19.66 26.206 -20.32 26.412 -21 26.625 C-26.137 28.979 -31.338 32.645 -35 37 C-35 37.99 -35 38.98 -35 40 C-32.69 40 -30.38 40 -28 40 C-28.433 40.869 -28.866 41.738 -29.312 42.633 C-29.876 43.797 -30.438 44.961 -31 46.125 C-31.286 46.695 -31.572 47.265 -31.867 47.852 C-33.713 51.719 -34.319 54.626 -34 59 C-32.68 59 -31.36 59 -30 59 C-30 60.98 -30 62.96 -30 65 C-28.68 64.34 -27.36 63.68 -26 63 C-26.248 63.887 -26.495 64.774 -26.75 65.688 C-27 69 -27 69 -25.188 71.875 C-23 74 -23 74 -21 74 C-21.084 73.29 -21.168 72.579 -21.254 71.848 C-21.356 70.929 -21.458 70.009 -21.562 69.062 C-21.667 68.146 -21.771 67.229 -21.879 66.285 C-21.919 65.531 -21.959 64.777 -22 64 C-21.835 63.835 -21.835 63.835 -21 63 C-20.67 64.65 -20.34 66.3 -20 68 C-19.01 67.01 -18.02 66.02 -17 65 C-16.807 65.482 -16.613 65.964 -16.414 66.461 C-16.284 66.777 -16.284 66.777 -15.625 68.375 C-15.37 69.001 -15.115 69.628 -14.852 70.273 C-14 72 -14 72 -12 74 C-9.793 74.273 -9.793 74.273 -7.188 74.375 C-2.311 74.744 -2.311 74.744 0.5 77.062 C4.449 80.123 8.183 79.549 13 79 C21.105 77.628 30.167 75.463 35.734 68.98 C37.157 66.754 37.277 65.589 37 63 C38.65 62.67 40.3 62.34 42 62 C42.33 61.01 42.66 60.02 43 59 C43.99 58.67 44.98 58.34 46 58 C46.027 56.563 46.046 55.125 46.062 53.688 C46.074 52.887 46.086 52.086 46.098 51.262 C46 49 46 49 45 46 C45.99 46 46.98 46 48 46 C48 45.34 48 44.68 48 44 C51.318 46.686 52.505 50.129 54 54 C55.563 52.937 55.563 52.937 57 51 C57.089 47.85 56.381 44.985 55.25 42.062 C53.292 40.398 51.465 40.805 49 41 C49 40.34 49 39.68 49 39 C50.65 38.34 52.3 37.68 54 37 C53.835 36.175 53.835 36.175 53 32 C54.32 32 55.64 32 57 32 C56.086 27.297 53.937 24.685 50 22 C47.112 21.028 44.281 20.331 41.293 19.738 C40.915 19.616 40.915 19.616 39 19 C38.835 18.505 38.835 18.505 38 16 C39.32 15.67 40.64 15.34 42 15 C42 14.01 42 13.02 42 12 C35.601 9.822 29.226 8.42 22.938 11.5 C22.298 11.995 21.659 12.49 21 13 C21 11.68 21 10.36 21 9 C20.469 9.012 19.938 9.023 19.391 9.035 C13.402 9.112 13.402 9.112 10.75 8.375 C8.305 7.851 7.08 8.737 5 10 C4.402 9.216 3.804 8.433 3.188 7.625 C0.105 3.926 0.105 3.926 -2 3 C-4.688 2.875 -4.688 2.875 -7 3 Z " fill="#492A1B" transform="translate(52,42)" />
  <path d="M0 0 C6.219 2.554 6.219 2.554 7.996 5.246 C8.676 7.246 8.676 7.246 7.801 9.496 C7.43 10.074 7.058 10.651 6.676 11.246 C7.501 11.267 8.326 11.287 9.176 11.309 C14.458 12.151 18.726 16.744 21.902 20.82 C23.315 23.424 22.795 26.326 22.426 29.184 C22.676 31.246 22.676 31.246 24.676 33.934 C27.446 37.804 27.273 41.651 26.676 46.246 C26.062 47.933 25.405 49.606 24.676 51.246 C24.711 51.632 24.711 51.632 24.891 53.586 C24.588 57.334 22.935 58.522 20.238 61.059 C19.415 61.849 18.591 62.639 17.742 63.453 C15.676 65.246 15.676 65.246 14.676 65.246 C14.627 64.377 14.578 63.508 14.527 62.613 C14.453 61.461 14.378 60.308 14.301 59.121 C14.266 58.553 14.266 58.553 14.09 55.676 C13.671 52.204 12.892 49.5 11.676 46.246 C10.686 47.236 9.696 48.226 8.676 49.246 C8.016 45.946 7.356 42.646 6.676 39.246 C7.666 39.246 8.656 39.246 9.676 39.246 C9.676 38.586 9.676 37.926 9.676 37.246 C12.676 38.246 12.676 38.246 13.844 40.094 C14.18 40.825 14.517 41.556 14.863 42.309 C15.207 43.042 15.552 43.776 15.906 44.531 C16.16 45.097 16.414 45.663 16.676 46.246 C17.612 41.47 17.981 38.721 15.676 34.246 C14.026 34.246 12.376 34.246 10.676 34.246 C10.676 33.586 10.676 32.926 10.676 32.246 C11.996 31.586 13.316 30.926 14.676 30.246 C14.676 28.596 14.676 26.946 14.676 25.246 C15.996 25.246 17.316 25.246 18.676 25.246 C16.148 20.697 13.894 17.076 8.879 15.199 C8.392 15.083 8.392 15.083 5.926 14.496 C4.941 14.254 3.956 14.011 2.941 13.762 C2.568 13.677 2.568 13.677 0.676 13.246 C0.346 11.926 0.016 10.606 -0.324 9.246 C0.996 8.586 2.316 7.926 3.676 7.246 C-1.798 4.415 -6.223 3.787 -12.324 4.246 C-15.387 5.246 -15.387 5.246 -17.324 6.246 C-17.324 4.926 -17.324 3.606 -17.324 2.246 C-17.601 2.294 -17.601 2.294 -19.004 2.535 C-19.728 2.646 -20.453 2.757 -21.199 2.871 C-21.919 2.987 -22.638 3.103 -23.379 3.223 C-23.7 3.227 -23.7 3.227 -25.324 3.246 C-25.984 2.586 -26.644 1.926 -27.324 1.246 C-26.82 1.221 -26.315 1.196 -25.795 1.17 C-23.513 1.054 -21.231 0.931 -18.949 0.809 C-18.155 0.769 -17.361 0.73 -16.543 0.689 C-15.782 0.648 -15.022 0.606 -14.238 0.562 C-13.537 0.526 -12.835 0.489 -12.112 0.451 C-2.14 -0.694 -2.14 -0.694 0 0 Z " fill="#31160C" transform="translate(90.32421875,48.75390625)" />
  <path d="M0 0 C1.422 1.16 1.422 1.16 2.688 2.562 C3.451 3.367 4.214 4.171 5 5 C7.312 4.812 7.312 4.812 9 4 C9.66 5.32 10.32 6.64 11 8 C9.68 8.99 8.36 9.98 7 11 C3.651 9.636 1.738 7.818 -0.559 5.121 C-2 4 -2 4 -7 3 C-7.33 7.62 -7.66 12.24 -8 17 C-13.28 17 -18.56 17 -24 17 C-24.33 17.99 -24.66 18.98 -25 20 C-24.567 20.266 -24.134 20.531 -23.688 20.805 C-23.409 20.981 -23.409 20.981 -22 21.875 C-21.443 22.223 -20.886 22.571 -20.312 22.93 C-19.879 23.283 -19.446 23.636 -19 24 C-19 24.66 -19 25.32 -19 26 C-20.704 27.193 -22.466 28.305 -24.25 29.375 C-33.262 34.787 -33.262 34.787 -35 40 C-32.69 40 -30.38 40 -28 40 C-28.655 43.016 -29.673 45.593 -31 48.375 C-32.645 51.98 -33.597 55.069 -34 59 C-32.68 59 -31.36 59 -30 59 C-29.67 60.65 -29.34 62.3 -29 64 C-28.505 63.835 -28.505 63.835 -26 63 C-26.103 63.887 -26.206 64.774 -26.312 65.688 C-25.888 70.189 -24.369 71.136 -21 74 C-21.66 70.37 -22.32 66.74 -23 63 C-22.34 63 -21.68 63 -21 63 C-20.34 64.32 -19.68 65.64 -19 67 C-18.67 64.03 -18.34 61.06 -18 58 C-17.67 58 -17.34 58 -17 58 C-16.879 58.736 -16.758 59.472 -16.633 60.23 C-16.465 61.206 -16.298 62.182 -16.125 63.188 C-15.963 64.15 -15.8 65.113 -15.633 66.105 C-15.02 68.91 -14.143 71.372 -13 74 C-13.66 74.165 -13.66 74.165 -17 75 C-17 75.99 -17 76.98 -17 78 C-22.232 77.634 -24.61 74.962 -28.062 71.375 C-28.579 70.866 -29.095 70.357 -29.627 69.832 C-33.857 65.532 -37.971 60.717 -38.5 54.5 C-38.278 50.418 -36.253 47.31 -34 44 C-35.32 43.67 -36.64 43.34 -38 43 C-38.551 39.22 -38.757 37.124 -36.582 33.895 C-34.786 31.853 -32.935 29.91 -31 28 C-30.598 27.588 -30.598 27.588 -28.562 25.5 C-28.047 25.005 -27.531 24.51 -27 24 C-27.516 23.608 -28.031 23.216 -28.562 22.812 C-30 21 -30 21 -30.062 18.562 C-28.898 15.754 -27.635 14.304 -25.031 12.715 C-20.847 11.242 -16.367 11.72 -12 12 C-11.974 11.385 -11.948 10.77 -11.922 10.137 C-11.462 3.587 -11.462 3.587 -9.375 0.938 C-6.183 -0.322 -3.332 -0.848 0 0 Z " fill="#30160B" transform="translate(52,42)" />
  <path d="M0 0 C1.792 0.114 3.584 0.241 5.375 0.375 C5.874 0.41 5.874 0.41 8.398 0.586 C11 1 11 1 13 3 C12.67 6.398 11.181 8.268 8.938 10.75 C8.664 11.057 8.664 11.057 7.277 12.609 C6.856 13.068 6.434 13.527 6 14 C7.65 14 9.3 14 11 14 C11.66 15.32 12.32 16.64 13 18 C7.963 19.511 3.118 18.646 -2 18 C-2.165 17.175 -2.165 17.175 -3 13 C-2.506 12.59 -2.013 12.18 -1.504 11.758 C-0.863 11.219 -0.223 10.68 0.438 10.125 C1.076 9.591 1.714 9.058 2.371 8.508 C4 7 4 7 5 5 C3.02 5 1.04 5 -1 5 C-0.67 3.35 -0.34 1.7 0 0 Z " fill="#33170D" transform="translate(87,23)" />
  <path d="M0 0 C4.29 0 8.58 0 13 0 C14 5 14 5 12.785 7.02 C12.217 7.611 11.648 8.203 11.062 8.812 C10.497 9.417 9.931 10.022 9.348 10.645 C8.903 11.092 8.458 11.539 8 12 C10.31 12 12.62 12 15 12 C14.67 13.32 14.34 14.64 14 16 C9.71 16 5.42 16 1 16 C0.67 15.01 0.34 14.02 0 13 C0.996 11.176 0.996 11.176 2.438 9.312 C2.911 8.69 3.384 8.067 3.871 7.426 C4.244 6.955 4.616 6.485 5 6 C3.02 5.34 1.04 4.68 -1 4 C-0.67 2.68 -0.34 1.36 0 0 Z " fill="#33160B" transform="translate(64,29)" />
  <path d="M0 0 C0.66 0.66 1.32 1.32 2 2 C1.791 4.713 1.345 6.491 -0.188 8.75 C-2.683 10.471 -5.025 10.669 -8 11 C-12 6.25 -12 6.25 -12 4 C-8.007 -0.114 -5.464 -0.619 0 0 Z " fill="#F49E78" transform="translate(48,105)" />
  <path d="M0 0 C0.562 1.937 0.562 1.937 1 4 C-0.924 5.924 -4.426 5.672 -7 6 C-7.082 6.949 -7.165 7.898 -7.25 8.875 C-8 12 -8 12 -9.875 13.375 C-12 14 -12 14 -15 14 C-14.339 10.82 -13.229 8.23 -11.688 5.375 C-11.279 4.599 -10.87 3.823 -10.449 3.023 C-7.485 -1.115 -4.702 -1.306 0 0 Z " fill="#3B2315" transform="translate(74,105)" />
  <path d="M0 0 C2.277 0.259 4.487 0.61 6.727 1.094 C7.057 3.074 7.387 5.054 7.727 7.094 C3.19 8.546 -0.454 9.329 -5.273 9.094 C-6.023 7.406 -6.023 7.406 -6.273 5.094 C-4.721 1.919 -3.705 0.153 0 0 Z " fill="#FAA986" transform="translate(90.2734375,92.90625)" />
  <path d="M0 0 C0 3.087 -0.235 3.684 -2 6 C-1.01 6 -0.02 6 1 6 C1.33 5.34 1.66 4.68 2 4 C2 4.66 2 5.32 2 6 C3.98 6 5.96 6 8 6 C8.66 7.32 9.32 8.64 10 10 C4.963 11.511 0.118 10.646 -5 10 C-5.165 9.175 -5.165 9.175 -6 5 C-4.02 3.35 -2.04 1.7 0 0 Z " fill="#250F09" transform="translate(90,31)" />
  <path d="M0 0 C0.33 0.66 0.66 1.32 1 2 C-0.65 2 -2.3 2 -4 2 C-4 2.66 -4 3.32 -4 4 C-2.02 4 -0.04 4 2 4 C2 4.66 2 5.32 2 6 C-3.61 6 -9.22 6 -15 6 C-14.34 5.67 -13.68 5.34 -13 5 C-13 3.68 -13 2.36 -13 1 C-10.855 0.835 -10.855 0.835 0 0 Z " fill="#D8615E" transform="translate(78,44)" />
  <path d="M0 0 C2.375 0.375 2.375 0.375 4.375 2.375 C4.375 3.365 4.375 4.355 4.375 5.375 C0.727 6.648 -2.819 7.703 -6.625 8.375 C-6.875 6.625 -6.875 6.625 -6.625 4.375 C-4.554 1.614 -3.455 0.494 0 0 Z " fill="#2C180D" transform="translate(76.625,79.625)" />
  <path d="M0 0 C-1.147 3.44 -2.005 4.007 -4.875 6.062 C-5.574 6.569 -6.272 7.076 -6.992 7.598 C-8.648 8.754 -10.312 9.891 -12 11 C-12.707 9.23 -12.707 9.23 -13 7 C-11.637 5.113 -11.637 5.113 -9.688 3.312 C-9.052 2.711 -8.416 2.109 -7.762 1.488 C-4.805 -1.009 -3.626 -1.088 0 0 Z " fill="#1F0C06" transform="translate(29,68)" />
  <path d="M0 0 C-0.33 1.98 -0.66 3.96 -1 6 C-2.485 6.165 -2.485 6.165 -10 7 C-10 5.68 -10 4.36 -10 3 C-3.714 -0.429 -3.714 -0.429 0 0 Z " fill="#2E1E13" transform="translate(83,91)" />
  <path d="M0 0 C4.502 0.592 4.502 0.592 6.375 2.125 C7.424 5.272 6.715 7.782 6 11 C5.67 11.165 5.67 11.165 4 12 C3.326 10.566 2.661 9.127 2 7.688 C1.629 6.887 1.257 6.086 0.875 5.262 C0 3 0 3 0 0 Z " fill="#E6BFA0" transform="translate(102,84)" />
  <path d="M0 0 C0.365 0.006 0.365 0.006 2.215 0.035 C2.948 0.044 3.682 0.053 4.438 0.062 C5.003 0.074 5.569 0.086 6.152 0.098 C6.482 1.418 6.812 2.738 7.152 4.098 C6.08 4.242 5.007 4.386 3.902 4.535 C1.267 4.909 -1.28 5.379 -3.848 6.098 C-2.78 0.147 -2.78 0.147 0 0 Z " fill="#321A0D" transform="translate(48.84765625,87.90234375)" />
  <path d="M0 0 C0.471 0.41 0.941 0.82 1.426 1.242 C2.048 1.781 2.671 2.32 3.312 2.875 C3.927 3.409 4.542 3.942 5.176 4.492 C7 6 7 6 8.73 7.07 C9.149 7.377 9.568 7.684 10 8 C10 8.66 10 9.32 10 10 C8.234 10.684 8.234 10.684 6 11 C4.078 9.785 4.078 9.785 2.25 8.062 C1.636 7.497 1.023 6.931 0.391 6.348 C-0.068 5.903 -0.527 5.458 -1 5 C-0.67 3.35 -0.34 1.7 0 0 Z " fill="#3A1A0E" transform="translate(23,58)" />
  <path d="M0 0 C0.33 0.66 0.66 1.32 1 2 C1.66 2 2.32 2 3 2 C3 2.66 3 3.32 3 4 C4.65 4 6.3 4 8 4 C1.862 7.41 -4.155 7.12 -11 7 C-10.01 6.67 -9.02 6.34 -8 6 C-7.67 5.01 -7.34 4.02 -7 3 C-7 3.66 -7 4.32 -7 5 C-4.062 4.188 -4.062 4.188 -1 3 C-0.67 2.01 -0.34 1.02 0 0 Z " fill="#DBA380" transform="translate(66,114)" />
  <path d="M0 0 C0.99 0 1.98 0 3 0 C2.628 2.23 2.373 3.627 0.75 5.25 C-1.629 6.269 -3.44 6.263 -6 6 C-6.66 5.34 -7.32 4.68 -8 4 C-8 3.01 -8 2.02 -8 1 C-6.21 1.033 -4.419 1.065 -2.629 1.098 C-1 1 -1 1 0 0 Z " fill="#24170E" transform="translate(56,99)" />
  <path d="M0 0 C0.99 0.33 1.98 0.66 3 1 C3.33 4.3 3.66 7.6 4 11 C-0.927 8.537 -0.927 8.537 -2 6 C-1.654 3.716 -1.033 2.066 0 0 Z " fill="#E0B994" transform="translate(27,105)" />
  <path d="M0 0 C2.02 0.602 4.021 1.273 6 2 C6.33 2.66 6.66 3.32 7 4 C6.34 4.66 5.68 5.32 5 6 C5 6.33 5 6.66 5 7 C2.36 7.33 -0.28 7.66 -3 8 C-2.691 7.237 -2.381 6.474 -2.062 5.688 C-1.321 3.812 -0.638 1.913 0 0 Z " fill="#F3C59E" transform="translate(49,80)" />
  <path d="M0 0 C1.32 1.32 2.64 2.64 4 4 C2.792 8.431 1.483 10.981 -2 14 C-2.625 11.688 -2.625 11.688 -3 9 C-2.125 7.562 -2.125 7.562 -1 6 C-0.61 4.01 -0.268 2.01 0 0 Z " fill="#CE6464" transform="translate(117,89)" />
  <path d="M0 0 C1.675 0.286 3.344 0.618 5 1 C5 2.65 5 4.3 5 6 C3.35 6.33 1.7 6.66 0 7 C-0.381 5.009 -0.713 3.007 -1 1 C-0.67 0.67 -0.34 0.34 0 0 Z " fill="#412313" transform="translate(108,99)" />
  <path d="M0 0 C0.247 0.557 0.495 1.114 0.75 1.688 C2.562 5.04 4.531 8.266 8 10 C8.33 9.34 8.66 8.68 9 8 C9.66 9.65 10.32 11.3 11 13 C6.474 12.734 4.161 10.869 1.16 7.699 C-0.591 5.134 -0.428 2.995 0 0 Z " fill="#200E08" transform="translate(24,107)" />
  <title>우가 아바타 — sleep</title>
</svg>